<?xml version="1.0" encoding="UTF-8" standalone="no"?>
<svg
   width="1024"
   height="1024"
   viewBox="0 0 1024 1024"
   fill="none"
   version="1.1"
   id="svg1"
   sodipodi:docname="appicon.svg"
   inkscape:version="1.3 (0e150ed, 2023-07-21)"
   xmlns:inkscape="http://www.inkscape.org/namespaces/inkscape"
   xmlns:sodipodi="http://sodipodi.sourceforge.net/DTD/sodipodi-0.dtd"
   xmlns="http://www.w3.org/2000/svg"
   xmlns:svg="http://www.w3.org/2000/svg">
  <sodipodi:namedview
     id="namedview1"
     pagecolor="#ffffff"
     bordercolor="#000000"
     borderopacity="0.25"
     inkscape:showpageshadow="2"
     inkscape:pageopacity="0.0"
     inkscape:pagecheckerboard="true"
     inkscape:deskcolor="#d1d1d1"
     inkscape:zoom="0.23046875"
     inkscape:cx="509.83051"
     inkscape:cy="512"
     inkscape:window-width="1440"
     inkscape:window-height="847"
     inkscape:window-x="0"
     inkscape:window-y="25"
     inkscape:window-maximized="1"
     inkscape:current-layer="svg1" />
  <g
     filter="url(#filter1)"
     id="g1">
    <rect
       x="100"
       y="100"
       width="824"
       height="824"
       rx="184"
       fill="white"
       id="rect1" />
  </g>
  <defs
     id="defs1">
    <filter
       id="filter1"
       x="78"
       y="89"
       width="868"
       height="868"
       filterUnits="userSpaceOnUse"
       color-interpolation-filters="sRGB">
      <feFlood
         flood-opacity="0"
         result="BackgroundImageFix"
         id="feFlood3" />
      <feColorMatrix
         in="SourceAlpha"
         type="matrix"
         values="0 0 0 0 0 0 0 0 0 0 0 0 0 0 0 0 0 0 127 0"
         result="hardAlpha"
         id="feColorMatrix3" />
      <feOffset
         dy="11"
         id="feOffset3" />
      <feGaussianBlur
         stdDeviation="11"
         id="feGaussianBlur3" />
      <feColorMatrix
         type="matrix"
         values="0 0 0 0 0 0 0 0 0 0 0 0 0 0 0 0 0 0 0.28 0"
         id="feColorMatrix4" />
      <feBlend
         mode="normal"
         in2="BackgroundImageFix"
         result="dropShadow1"
         id="feBlend4" />
      <feBlend
         mode="normal"
         in="SourceGraphic"
         in2="dropShadow1"
         result="shape"
         id="feBlend5" />
    </filter>
    <filter
       id="filter2"
       x="204"
       y="268"
       width="616"
       height="520"
       filterUnits="userSpaceOnUse"
       color-interpolation-filters="sRGB">
      <feFlood
         flood-opacity="0"
         result="BackgroundImageFix"
         id="feFlood5" />
      <feColorMatrix
         in="SourceAlpha"
         type="matrix"
         values="0 0 0 0 0 0 0 0 0 0 0 0 0 0 0 0 0 0 127 0"
         result="hardAlpha"
         id="feColorMatrix5" />
      <feOffset
         dy="16"
         id="feOffset5" />
      <feGaussianBlur
         stdDeviation="10"
         id="feGaussianBlur5" />
      <feColorMatrix
         type="matrix"
         values="0 0 0 0 0 0 0 0 0 0 0 0 0 0 0 0 0 0 0.3 0"
         id="feColorMatrix6" />
      <feBlend
         mode="normal"
         in2="BackgroundImageFix"
         result="dropShadow1"
         id="feBlend6" />
      <feBlend
         mode="normal"
         in="SourceGraphic"
         in2="dropShadow1"
         result="shape"
         id="feBlend7" />
    </filter>
    <clipPath
       id="clip1">
      <rect
         width="576"
         height="576"
         fill="white"
         transform="translate(224 224)"
         id="rect7" />
    </clipPath>
  </defs>
  <g
     id="g32"
     transform="matrix(5.0132331,0,0,5.0132331,140.11701,163.44264)">
    <g
       id="g2">
      <path
         class="st0"
         d="m 69.1,129.7 c -3.9,0 -7.5,-1.6 -10.3,-4.5 l -0.6,-0.6 -0.5,-0.7 c -0.1,-0.1 -0.3,-0.3 -0.4,-0.5 l -0.5,-0.5 -0.2,-0.4 -0.4,-0.5 c -1.1,-1.3 -2.3,-2.7 -3.2,-3.8 l -0.4,-0.5 C 47.7,112 41.8,105.1 33.4,95.7 26.8,88.4 18.1,78.6 10.1,67.9 4.4,60.2 4.5,53.2 10.3,46.4 l 0.1,-0.3 5.6,-5.8 1,-1 c 0.3,-0.3 0.5,-0.5 0.6,-0.7 l 0.1,-0.2 0.1,-0.1 c 1.4,-1.4 2.8,-2.9 4.3,-4.5 3.3,-3.3 6.2,-6.1 8.7,-8.5 0.4,-0.4 1,-0.9 1.5,-1.4 0.4,-0.4 0.8,-0.8 1.2,-1.2 l 0.1,-0.1 c 3,-2.9 6.9,-4.3 11.3,-4.3 6.9,0 13.4,0 19.8,0.1 12.7,0.1 28.9,0.2 35.2,0.2 h 2.6 c 4.4,0 8.5,1.7 11.4,4.8 l 6.3,6.5 c 0.8,0.8 1.7,1.7 2.6,2.7 0.4,0.4 0.8,0.9 1.3,1.3 0.4,0.4 0.8,0.8 1.2,1.2 l 0.2,0.2 c 1.8,1.9 3.5,3.7 5.2,5.3 l 0.1,0.1 c 2,2.1 3.9,4.1 5.7,6.2 l 0.2,0.3 c 0.7,0.8 1.4,1.5 2,2.1 l 0.4,0.4 0.1,0.1 c 3.1,3.4 4.5,7.1 4.3,11 -0.1,2.9 -1.2,7.2 -5.6,10.8 -7.7,6.6 -14.4,12.8 -20,17.9 l -3.9,3.7 c -1,1 -1.9,1.8 -2.8,2.7 l -0.2,0.2 -0.2,0.1 c -0.3,0.3 -0.8,0.7 -1.2,1.1 -0.3,0.3 -0.6,0.6 -1,0.9 -0.2,0.2 -0.5,0.4 -0.7,0.6 l -0.1,0.1 c -2.1,2 -4.3,4 -6.3,5.8 l -0.1,0.1 -0.3,0.2 c -0.2,0.1 -0.3,0.3 -0.4,0.4 -0.4,0.4 -0.9,0.8 -1.5,1.3 -1.3,1.2 -2.6,2.4 -3.9,3.5 l -0.3,0.2 c -0.7,0.6 -1.3,1.2 -1.8,1.7 l -0.2,0.2 -5.5,5 c -1,1 -2.3,2.2 -3.8,3.3 -1.3,1.1 -2.9,2.5 -4.4,3.9 v 0 c -2.1,3.3 -6,5.2 -10.2,5.2 z"
         id="path1"
         style="fill:#388934" />
      <path
         class="st1"
         d="m 45.2,23.3 c 6.9,0 13.4,0 19.7,0.1 12.8,0.1 29,0.2 35.3,0.2 h 2.6 c 3.1,0 5.9,1.2 7.8,3.2 l 6.4,6.5 c 0.8,0.8 1.7,1.7 2.5,2.6 0.8,0.8 1.7,1.8 2.5,2.6 l 0.1,0.1 c 1.7,1.8 3.5,3.6 5.3,5.4 l 0.1,0.1 c 1.9,2 3.7,4 5.6,6 0.8,0.9 1.6,1.8 2.4,2.5 l 0.3,0.3 0.1,0.1 c 0.8,0.8 3.2,3.6 3.1,7.5 -0.2,4 -2.8,6.4 -3.8,7.2 -7.2,6.2 -13.6,12 -20.2,18.1 l -4,3.7 c -0.9,0.9 -1.9,1.8 -2.8,2.6 l -0.2,0.2 c -0.5,0.4 -1,0.9 -1.5,1.4 -0.5,0.5 -1.1,1 -1.6,1.5 -2,1.9 -4.1,3.8 -6.1,5.6 l -0.3,0.3 c -0.7,0.6 -1.3,1.2 -2,1.8 -1.3,1.2 -2.6,2.4 -4,3.6 -0.8,0.8 -1.6,1.4 -2.3,2.1 l -5.6,5.1 c -1.1,1.1 -2.2,2.1 -3.4,3 -1.5,1.3 -3.3,2.9 -5,4.4 l -0.1,0.1 c -1.5,2.2 -4.1,3.4 -6.8,3.4 -2.5,0 -4.8,-1 -6.7,-3 l -0.4,-0.4 -0.3,-0.3 v -0.1 c -0.1,-0.1 -0.2,-0.2 -0.3,-0.3 -0.2,-0.2 -0.3,-0.3 -0.3,-0.4 L 61.2,120 61,119.8 60.9,119.6 C 59.5,118 58.1,116.3 57,114.9 l -0.4,-0.5 C 51.3,108.3 45.4,101.4 37.3,92.2 30.8,85 22.2,75.3 14.2,64.7 9.7,59 9.9,54.4 14.6,49.3 l 0.1,-0.2 5.1,-5.3 c 0.3,-0.3 0.7,-0.7 0.9,-0.9 0.3,-0.3 0.7,-0.7 1,-1.1 1.4,-1.4 2.7,-2.9 4.2,-4.4 3.2,-3.2 6.1,-6 8.7,-8.5 0.9,-0.9 1.9,-1.8 2.7,-2.6 3.1,-3 6.7,-3 7.9,-3 m 0,-10 c -5.8,0 -10.8,1.9 -14.8,5.7 l -0.1,0.1 -0.1,0.1 c -0.4,0.4 -0.7,0.7 -1.1,1.1 -0.5,0.5 -1,1 -1.5,1.5 -2.5,2.4 -5.4,5.2 -8.7,8.6 -1.6,1.6 -3.1,3.2 -4.5,4.6 l -0.3,0.3 -0.2,0.3 c -0.1,0.1 -0.2,0.2 -0.3,0.3 l -0.4,0.4 -0.5,0.5 -0.1,0.1 -0.1,0.1 -5.1,5.3 -1.1,1.1 -0.2,0.4 C 1,49.9 -2.6,59.3 6,71 v 0 0 c 8.3,10.7 17,20.6 23.8,28.1 7.9,9 13.8,15.9 19.1,22 l 0.3,0.4 c 0.9,1.1 2.1,2.5 3.2,3.8 l 0.1,0.1 0.3,0.6 0.8,0.8 c 0.1,0.1 0.2,0.2 0.3,0.3 l 0.2,0.2 0.4,0.6 0.5,0.5 0.4,0.4 c 3.7,3.8 8.6,6 13.8,6 5.6,0 10.8,-2.4 14.2,-6.6 1.3,-1.2 2.7,-2.4 3.9,-3.4 1.7,-1.2 3.1,-2.5 4.1,-3.6 l 5.4,-4.9 0.2,-0.2 0.2,-0.2 c 0.4,-0.4 1,-0.9 1.7,-1.5 l 0.2,-0.2 c 1.3,-1.1 2.6,-2.3 3.9,-3.5 0.6,-0.5 1.2,-1 1.6,-1.4 0.1,-0.1 0.2,-0.2 0.3,-0.2 v 0 l 0.3,-0.2 0.3,-0.2 c 2.1,-1.8 4.3,-3.8 6.4,-5.9 l 0.1,-0.1 0.1,-0.1 c 0.2,-0.2 0.3,-0.3 0.5,-0.5 0.4,-0.3 0.7,-0.7 1.1,-1 0.3,-0.3 0.7,-0.7 0.9,-0.8 l 0.3,-0.3 0.3,-0.3 v 0 c 0.9,-0.8 1.9,-1.7 2.8,-2.7 l 3.8,-3.6 c 5.5,-5.1 12.2,-11.2 19.9,-17.8 4.5,-3.8 7.1,-8.9 7.3,-14.4 0.2,-3.6 -0.7,-9.1 -5.6,-14.6 l -0.2,-0.2 -0.2,-0.2 -0.1,-0.1 -0.3,-0.3 c -0.5,-0.5 -1.1,-1.2 -1.8,-1.9 l -0.2,-0.3 c -1.9,-2.1 -3.8,-4.2 -5.8,-6.2 l -0.1,-0.1 -0.1,-0.1 -0.1,-0.1 c -1.6,-1.6 -3.3,-3.4 -5.1,-5.3 l -0.1,-0.1 -0.1,-0.1 -0.1,-0.1 c -0.4,-0.4 -0.7,-0.8 -1.1,-1.1 -0.4,-0.4 -0.8,-0.9 -1.3,-1.3 -0.9,-1 -1.8,-1.9 -2.7,-2.8 l -6.3,-6.5 c -3.8,-4 -9.3,-6.3 -15,-6.3 h -2.6 c -6.3,0 -22.5,-0.1 -35.2,-0.2 -6.2,0 -12.8,0 -19.7,0 z"
         id="path2"
         style="fill:#ffffff" />
    </g>
    <path
       class="st0"
       d="m 69.1,124.7 c -2.5,0 -4.8,-1 -6.7,-3 L 62,121.3 61.7,121 v -0.1 c -0.1,-0.1 -0.2,-0.2 -0.3,-0.3 -0.2,-0.2 -0.3,-0.3 -0.3,-0.4 l -0.1,-0.1 -0.2,-0.2 -0.1,-0.2 c -1.4,-1.6 -2.8,-3.3 -3.9,-4.7 l -0.4,-0.5 C 51.1,108.4 45.2,101.5 37.1,92.3 30.6,85.1 22,75.4 14,64.8 9.7,59 9.9,54.4 14.6,49.3 l 0.1,-0.2 5.1,-5.3 c 0.3,-0.3 0.7,-0.7 0.9,-0.9 0.3,-0.3 0.7,-0.7 1,-1.1 1.4,-1.4 2.7,-2.9 4.2,-4.4 3.2,-3.2 6.1,-6 8.7,-8.5 0.9,-0.9 1.9,-1.8 2.7,-2.6 3.1,-3 6.7,-3 7.9,-3 6.9,0 13.4,0 19.7,0.1 12.8,0.1 29,0.2 35.3,0.2 h 2.6 c 3.1,0 5.9,1.2 7.8,3.2 l 6.4,6.5 c 0.8,0.8 1.7,1.7 2.5,2.6 0.8,0.8 1.7,1.8 2.5,2.6 l 0.1,0.1 c 1.7,1.8 3.5,3.6 5.3,5.4 l 0.1,0.1 c 1.9,2 3.7,4 5.6,6 0.8,0.9 1.6,1.8 2.4,2.5 l 0.3,0.3 0.1,0.1 c 0.8,0.8 3.2,3.6 3.1,7.5 -0.2,4 -2.8,6.4 -3.8,7.2 -7.2,6.2 -13.6,12 -20.2,18.1 l -4,3.7 c -0.9,0.9 -1.9,1.8 -2.8,2.6 l -0.2,0.2 c -0.5,0.4 -1,0.9 -1.5,1.4 -0.5,0.5 -1.1,1 -1.6,1.5 -2,1.9 -4.1,3.8 -6.1,5.6 l -0.3,0.3 c -0.7,0.6 -1.3,1.2 -2,1.8 -1.3,1.2 -2.6,2.4 -4,3.6 -0.8,0.8 -1.6,1.4 -2.3,2.1 l -5.6,5.1 c -1.1,1.1 -2.2,2.1 -3.4,3 -1.5,1.3 -3.3,2.9 -5,4.4 l -0.1,0.1 c -1.7,2.3 -4.3,3.5 -7,3.5 z"
       id="path3"
       style="fill:#388934" />
    <g
       id="g23">
      <path
         class="st2"
         d="m 73.2,40.8 c 4.4,0.2 8.7,0.4 12.8,2.3 2.7,1.1 4.8,3.2 5.9,5.9 0.3,0.8 0.8,1.1 1.6,1.1 2,0 3.9,0 5.9,0.1 1.2,0 1.5,-0.4 1.5,-1.6 0.1,-3.1 0.3,-6.4 0.4,-9.5 0,-0.6 0,-1.4 0.4,-1.7 0.4,-0.3 0.9,0.5 1.3,1 4.4,4.4 9,8.9 13.4,13.2 1.9,1.9 3.6,3.8 5.5,5.6 0.8,0.8 0.6,1.2 -0.1,1.8 -3,2.5 -5.9,5.2 -8.7,7.9 -0.9,0.9 -1.8,2 -2.8,2.8 -0.3,0.2 -0.4,0.5 -0.8,0.4 -0.3,-0.2 -0.2,-0.4 -0.2,-0.7 -0.3,-2 -0.3,-2 -2.3,-2 -2,0 -2,0 -2,-2 0,-1.5 0.2,-3.1 0.3,-4.7 0.1,-0.9 0.4,-1.4 1.4,-1.2 0.1,0 0.2,0 0.3,0 2.7,0 2.7,0 2.8,-2.8 0.1,-0.9 -0.3,-1.2 -1.2,-1.2 -2.7,-0.2 -2.7,-0.2 -2.5,-2.8 0.1,-1.9 0.1,-2 -1.8,-2 -4.2,0.1 -3.6,-0.3 -3.8,3.5 -0.1,1.1 -0.3,1.5 -1.6,1.4 -2,-0.3 -4.2,0.1 -6.4,-0.1 -0.8,-0.1 -1.2,-0.3 -1.2,-1.2 0.1,-0.8 0,-1.6 0.2,-2.4 0.1,-0.8 -0.3,-1.2 -1,-1.2 -0.2,0 -0.3,0 -0.4,0 -3.6,0.1 -3,-0.4 -3.2,2.9 -0.1,1.6 -0.1,1.6 -1.7,1.5 -0.4,0 -1,0 -1.5,0 -0.6,0 -1.2,0.4 -1.2,1.1 v 0 c -0.1,0.7 -0.2,1.4 -0.2,2.1 -0.1,0.4 0.3,0.8 0.6,0.8 H 83 c 0.2,0 0.3,0 0.4,0 2.9,0 2.9,0 2.8,2.9 -0.1,1.2 -0.3,2.5 -0.3,3.8 0,0.8 -0.4,1.1 -1.2,0.9 0,0.3 -0.4,0.3 -0.8,0.3 -2,0 -2.8,1.1 -2.2,3.1 0.2,0.6 0.6,0.8 1.2,0.8 0.8,0.2 1.6,0.3 2.4,0.3 0.9,0 1.1,0.4 1,1.2 -0.1,1 -0.2,2 -0.2,2.9 -0.1,1.1 0.4,1.6 1.5,1.5 0.3,0 0.7,0 1,0.1 0.3,0 0.4,0.2 0.4,0.4 0,0.2 -0.2,0.4 -0.4,0.4 -2.8,1.2 -4.5,3.4 -5.9,5.9 -0.3,0.4 -0.6,0.9 -1.2,1.1 -3.4,1.1 -6.8,2 -10.4,1.3 C 64.6,84.6 58.6,81.8 54.6,76.3 51.6,72.2 50.2,67.6 50,62.5 49.7,57.7 52,53.9 54.5,50.3 59.2,44 65.3,41.2 73.2,40.8 Z"
         id="path4"
         style="fill:#2a6727" />
      <path
         class="st2"
         d="m 86.7,92.4 c -0.2,0.3 -0.4,0.5 -0.5,0.8 -5.2,5.3 -10.4,10.7 -15.9,15.8 -0.6,0.5 -1,0.6 -1.6,-0.2 -4.9,-5.9 -9.7,-12 -14.8,-17.7 -0.2,-0.2 -0.3,-0.4 -0.4,-0.6 -0.2,-0.3 -0.3,-0.4 -0.2,-0.7 0.3,-0.3 0.5,-0.2 0.8,0 1.7,0.8 3.5,1.4 5.2,2 6.7,2.1 13.7,2.7 20.6,1.4 2,-0.4 3.7,-1 5.7,-1.4 0.3,-0.1 0.9,-0.2 1.1,0.6 z"
         id="path5"
         style="fill:#2a6727" />
      <path
         class="st2"
         d="M 37.1,45.4 C 33.3,49 29.8,53 26.3,56.7 c -0.6,0.6 -0.2,1.2 0.3,1.5 1.5,2 3.1,4 4.7,5.9 1,-0.3 0.4,-1.2 0.7,-1.8 0.4,-2.9 2,-5.3 3.4,-7.9 3.6,-6.5 8.9,-11.5 15.4,-15.4 0.8,0.6 0,0.7 -0.3,0.9 -2,1.4 -4.2,2.7 -6.1,4.4 -5.3,4.7 -9.2,10.5 -11.4,17 -0.4,1.4 -0.4,3 -0.2,4.5 0.1,0.4 0.3,0.8 -0.2,1 -0.4,0.3 -0.5,-0.3 -0.8,-0.4 -2,-2.7 -4.2,-5.4 -6.3,-8.2 -0.4,-0.6 -0.4,-1.2 0.1,-1.7 2.8,-3.1 5.7,-6.3 8.7,-9.3 0.6,-0.6 1.3,-1.2 2,-1.9 0.3,-0.2 0.5,-0.3 0.8,0.1 z"
         id="path6"
         style="fill:#2a6727" />
      <path
         class="st2"
         d="m 99.8,74 c 0,0.6 0.1,1 0.1,1.4 0,1.2 0.5,1.7 1.7,1.8 0.3,0 0.6,-0.2 0.7,0.2 0,0.2 -0.3,0.4 -0.4,0.6 -0.3,0.3 -0.5,0.6 -0.9,0.9 -0.4,0.4 -1.1,1.4 -1.6,1.4 -0.8,0 -0.4,-1.2 -0.8,-1.7 -0.5,-0.8 -1.2,-1.4 -2,-1.7 -0.9,-0.3 -2,-0.3 -3,-0.3 -2.9,0.2 -2.9,0.2 -2.7,-2.7 0,-0.3 0,-0.6 0,-0.9 0,-1.2 0.4,-1.5 1.6,-1.4 2,0.2 3.7,0.3 5.7,0.3 1.2,0 2,0.5 1.6,2.1 -0.1,-0.3 -0.1,-0.2 0,0 z"
         id="path7"
         style="fill:#2a6727" />
      <path
         class="st2"
         d="m 96,59.7 c 1.2,0 2.3,0 3.5,0 0.8,0 1.1,0.3 1,1.1 -0.2,1.9 -0.4,3.6 -0.4,5.6 0,0.5 -0.3,0.8 -0.8,0.8 C 96.9,67.1 94.4,67 92,67 c -0.7,0 -0.8,-0.5 -0.8,-1.1 0.1,-2 0.3,-3.7 0.4,-5.7 0,-0.5 0.4,-0.6 0.8,-0.6 1.3,0.1 2.4,0.1 3.6,0.1 z"
         id="path8"
         style="fill:#2a6727" />
      <path
         class="st2"
         d="m 92.7,40.6 c -0.1,1 -0.5,1.4 -1.4,0.8 -1.4,-1.2 -2.9,-2.4 -4.4,-3.6 -0.2,-0.1 -0.3,-0.3 -0.3,-0.4 0.1,-0.3 0.4,-0.2 0.5,-0.2 2.1,0.1 4.4,0.2 6.5,0.3 0.7,0 1,0.4 0.5,1 -0.4,0.6 -0.6,1.4 -1.3,1.9 h -0.1 c -0.2,-0.2 -0.3,-0.4 -0.3,-0.5 -0.1,-0.2 -0.2,-0.4 -0.2,-0.5 0,-0.1 -0.1,-0.2 -0.2,-0.3 0,0 -0.1,-0.1 -0.2,-0.1 -0.5,-0.3 -1.1,0 -1.5,-0.1 0.6,0.4 1.1,0.9 1.6,1.3 0.1,0 0.3,0.1 0.3,0.1 l 0.2,0.1 0.1,0.1 z"
         id="path9"
         style="fill:#2a6727" />
      <path
         class="st2"
         d="m 53,38 c 0.3,-0.2 0.4,-0.3 0.3,-0.5 -1,-0.4 -2,-0.2 -3.1,-0.3 -0.3,0 -0.6,0 -0.6,-0.3 0,-0.4 0.4,-0.3 0.5,-0.3 1.5,0 3.1,0 4.5,0 0.4,0 0.8,0 0.8,0.4 0.1,0.4 -0.4,0.4 -0.7,0.5 -0.7,0.4 -1.4,1 -2.3,0.9 l -0.1,-0.1 c 0,-0.2 0,-0.3 0.1,-0.4 z"
         id="path10"
         style="fill:#2a6727" />
      <path
         class="st2"
         d="m 105,73.3 c 0,-1.5 0.7,-2 2.1,-1.6 0.4,0.2 0.4,0.4 0.3,0.6 -0.3,0.4 -0.6,1 -1,1.4 -0.3,0.3 -0.6,1 -1.2,0.8 -0.4,-0.2 -0.1,-0.8 -0.2,-1.2 z"
         id="path11"
         style="fill:#2a6727" />
      <path
         class="st2"
         d="m 52.7,38.7 c -0.3,0.4 -0.5,1.2 -1.2,0.3 l 0.2,-0.2 c 0.1,0.1 0.2,0.1 0.2,-0.1 l 0.4,-0.3 c 0,0 0.2,0 0.4,0.3 z"
         id="path12"
         style="fill:#2a6727" />
      <path
         class="st2"
         d="m 93,40.5 -0.3,0.3 v 0 c -0.1,-0.3 0,-0.4 0.3,-0.3 z"
         id="path13"
         style="fill:#2a6727" />
      <path
         class="st2"
         d="m 51.4,66.3 c 0.2,0.2 0.3,0.4 0.1,0.5 -0.1,0 -0.2,-0.3 -0.1,-0.5 z"
         id="path14"
         style="fill:#2a6727" />
      <path
         class="st2"
         d="m 31.9,62.5 c 0,0.5 0,1.1 -0.1,1.6 -0.1,0.4 -0.3,0.8 -0.6,0.2 0.5,-0.5 0.3,-1.2 0.7,-1.8 z"
         id="path15"
         style="fill:#2a6727" />
      <path
         class="st2"
         d="m 52.6,38.6 -0.4,-0.2 0.4,-0.3 c 0.1,0.2 0.1,0.3 0,0.5 z"
         id="path16"
         style="fill:#2a6727" />
      <path
         class="st2"
         d="m 51.8,38.7 c 0,0.2 -0.1,0.1 -0.2,0.1 0.1,-0.1 0.1,-0.2 0.2,-0.1 z"
         id="path17"
         style="fill:#2a6727" />
      <polygon
         class="st2"
         points="53,38 52.9,38 52.9,37.9 "
         id="polygon17"
         style="fill:#2a6727" />
      <path
         class="st2"
         d="m 83.7,94.2 c 0,-0.3 -0.1,-0.4 -0.1,-0.8 0.3,-0.2 0.4,-0.3 0.6,0 0.1,0.4 -0.2,0.6 -0.5,0.8 z"
         id="path18"
         style="fill:#2a6727" />
      <path
         class="st2"
         d="m 100.2,78.1 c 0,0.3 -0.3,0.4 -0.4,0.4 -0.2,0 -0.4,-0.2 -0.4,-0.4 V 78 c 0,-0.3 0.3,-0.4 0.5,-0.4 0,0 0.3,0.2 0.3,0.5 z"
         id="path19"
         style="fill:#2a6727" />
      <path
         class="st2"
         d="m 93.3,38.4 c -1.1,-0.2 -2.2,0.2 -3.4,-0.2 1.1,0.1 2.3,-0.3 3.4,0.2 z"
         id="path20"
         style="fill:#2a6727" />
      <path
         class="st2"
         d="m 92.5,40.6 c 0,-0.4 0.3,-0.7 0.4,-0.9 l 0.1,0.8 -0.3,0.3 z"
         id="path21"
         style="fill:#2a6727" />
      <path
         class="st2"
         d="m 93.2,39.1 0.2,-0.3 C 93.3,39 93.3,39 93.2,39.1 Z"
         id="path22"
         style="fill:#2a6727" />
      <path
         class="st2"
         d="m 92.1,40.9 0.3,-0.3 c 0.1,0.3 0,0.4 -0.3,0.3 z"
         id="path23"
         style="fill:#2a6727" />
    </g>
    <g
       id="g31">
      <path
         class="st1"
         d="m 37.1,45.4 c 2.3,-2.5 4.9,-4.8 7.4,-7.2 0.5,-0.6 1.3,-0.9 2.1,-0.8 2.2,0 4.4,0 6.8,0 0.3,0.2 0.3,0.4 0.2,0.6 -0.1,0.1 -0.2,0.2 -0.3,0.3 -0.1,0 -0.3,0.1 -0.3,0.2 -0.3,0 -0.4,0.2 -0.5,0.3 -0.1,0.1 -0.2,0.2 -0.3,0.2 -0.2,0 -0.3,0.1 -0.4,0.1 h -0.3 c -0.3,0 -0.6,0.2 -0.8,0.4 -0.5,0.9 -1.5,1.4 -2.5,2 -6.7,4 -10.9,9.9 -14.4,16.7 -0.6,1.3 -1.4,2.7 -1.4,4.3 -0.1,0.8 -0.5,1.4 -1.1,2 -0.4,0.2 -0.8,-0.2 -1.1,-0.4 -1.4,-1.9 -2.8,-3.6 -4.2,-5.5 -0.5,-0.8 -0.5,-1.4 0.2,-2 2.5,-2.7 4.9,-5.3 7.5,-7.9 1,-1.4 1.9,-2.6 3.4,-3.3 z"
         id="path24"
         style="fill:#ffffff" />
      <path
         class="st1"
         d="m 51.4,66.3 c -1.1,-5.2 -0.2,-9.8 2.8,-14.3 3.2,-4.8 7.4,-8.3 13.1,-9.5 6.8,-1.5 13.3,-1.2 19.6,2 1.7,0.9 3.1,2.3 4.1,4 0.4,0.8 0.4,1.3 -0.7,1.2 -0.3,0 -0.4,0 -0.8,0 -3.6,0 -2.8,-0.6 -3.1,2.9 -0.2,1.7 -0.1,1.7 -1.9,1.8 -2.3,0.1 -2.3,0.1 -2.5,2.4 0,0.1 0,0.2 0,0.3 0,0.8 -0.5,2 0,2.6 0.4,0.6 1.6,0.2 2.5,0.3 0.8,0.1 1.2,0.3 1.1,1.2 -0.1,1.3 -0.3,2.6 -0.3,3.9 0,0.8 -0.4,1.1 -1.1,1.1 -0.3,0 -0.6,0 -0.9,0 -2.2,0 -2.2,0 -2.4,2.2 -0.3,3.1 -0.3,3.1 2.9,3.1 1.2,0 1.6,0.4 1.5,1.6 -0.1,0.9 -0.2,1.9 -0.2,2.8 0,0.5 -0.2,1.2 0.6,1.4 0.6,0.3 0.2,0.6 -0.1,0.8 -1.5,1.4 -2.8,3 -3.6,4.9 -0.3,0.6 -0.8,0.8 -1.4,1 -4,1.4 -8,1.5 -12.1,0.3 -3.6,-1.2 -7,-2.6 -9.9,-5 -4.1,-3.1 -6.2,-7.5 -7.3,-12.3 0.1,-0.3 0.2,-0.5 0.1,-0.7 z"
         id="path25"
         style="fill:#ffffff" />
      <path
         class="st1"
         d="m 101.8,46.2 c 0,-2 0.3,-4.2 0.4,-6.2 0,-0.3 -0.1,-0.8 0.3,-0.9 0.4,-0.2 0.6,0.3 0.8,0.4 3.9,3.6 7.6,7.6 11.4,11.4 2,2 4,4.2 6,6.2 0.7,0.7 0.6,1.2 -0.1,1.9 -3.1,2.8 -6.2,5.7 -9.3,8.5 -0.4,0.4 -0.8,0.8 -0.9,-0.3 0,-0.6 -0.4,-0.6 -0.8,-0.7 -0.4,0 -0.8,-0.1 -1.2,-0.1 -2.3,-0.2 -2.3,-0.2 -2.2,-2.4 0.1,-1.1 0.3,-2.2 0.3,-3.3 0,-0.7 0.4,-0.8 1,-0.8 0.8,0 1.7,0 2.5,0.1 0.4,0 0.8,0 0.8,-0.5 0.1,-1.3 0.3,-2.6 0.3,-3.9 0.1,-0.6 -0.2,-0.8 -0.8,-0.8 -3.4,-0.3 -3.1,0.4 -2.8,-3.1 0.2,-1.5 0.2,-1.5 -1.4,-1.6 -1,0 -2,-0.1 -2.9,0 -1,0 -1.3,-0.4 -1.2,-1.4 -0.1,-0.9 -0.2,-1.7 -0.2,-2.5 z"
         id="path26"
         style="fill:#ffffff" />
      <path
         class="st1"
         d="m 96.7,50.9 c 0.9,0 1.9,0 2.8,0 0.7,0 0.9,0.3 0.8,0.9 0,0.1 0,0.2 0,0.3 0,2.5 0,2.5 -2.5,2.5 -1.3,0 -2.6,-0.1 -3.9,-0.2 -0.8,0 -1.2,-0.4 -1.2,-1.2 0,-0.3 0.1,-0.7 0,-1 -0.1,-1.2 0.4,-1.4 1.4,-1.4 1,0.2 1.8,0.1 2.6,0.1 z"
         id="path27"
         style="fill:#ffffff" />
      <path
         class="st1"
         d="m 83.7,94.2 c -4.2,4.8 -8.7,9.3 -13.5,13.5 -0.5,0.4 -0.9,0.7 -1.5,0 -3.9,-4.8 -7.9,-9.7 -11.8,-14.5 -0.3,-0.4 -0.8,-0.7 -0.8,-1.3 0.5,0.1 1.1,0.3 1.5,0.4 4.5,1.6 9.3,2.5 14.1,2.6 4.1,0.2 8.1,-0.4 12,-1.4 0,0.2 0,0.4 0,0.7 z"
         id="path28"
         style="fill:#ffffff" />
      <path
         class="st1"
         d="m 95.3,72.2 c 0.6,0 1.2,0.1 2,0.1 2,0 2,0 1.9,2 -0.1,0.8 0.3,2.1 -0.3,2.5 -0.7,0.6 -1.4,-0.6 -2.2,-0.8 -1.2,-0.3 -2.5,-0.4 -3.7,-0.4 -0.8,0 -1.2,-0.2 -1.2,-1.1 0,-2.7 0,-2.7 2.7,-2.5 0.1,0.2 0.4,0.2 0.8,0.2 z"
         id="path29"
         style="fill:#ffffff" />
      <path
         class="st1"
         d="m 95.8,66.4 c -0.4,0 -0.9,-0.1 -1.4,-0.1 -2.7,-0.1 -2.7,-0.1 -2.4,-2.8 0,-0.3 0.1,-0.4 0.1,-0.6 0.3,-2.6 0.3,-2.6 3,-2.5 1.2,0 2.5,0.1 3.6,0.1 0.6,0 1,0.4 0.8,0.9 -0.3,1.3 -0.3,2.6 -0.3,3.9 -0.1,0.8 -0.4,1.2 -1.2,1.1 -0.7,0 -1.5,0 -2.2,0 z"
         id="path30"
         style="fill:#ffffff" />
      <path
         class="st1"
         d="m 93.2,39.1 -0.3,0.4 c -0.2,0.3 -0.1,0.8 -0.4,0.9 v 0 c 0,0.2 -0.2,0.3 -0.3,0.3 -1.2,-0.4 -1.9,-1.3 -2.7,-2 -0.4,-0.3 -0.3,-0.4 0.5,-0.5 1.2,0 2.2,-0.3 3.4,0.2 v 0.4 c -0.1,0.2 -0.1,0.3 -0.2,0.3 z"
         id="path31"
         style="fill:#ffffff" />
    </g>
  </g>
</svg>
