<?xml version="1.0" encoding="utf-8"?>
<svg version="1.1" id="Layer_1" xmlns="http://www.w3.org/2000/svg" xmlns:xlink="http://www.w3.org/1999/xlink" x="0px" y="0px"
	 viewBox="0 0 150 150" style="enable-background:new 0 0 150 150;" xml:space="preserve">
<style type="text/css">
	.st0{fill:#388934;}
	.st1{fill:#FFFFFF;}
	.st2{fill:#2A6727;}
</style>
<title>RoslynPad</title>
<g>
	<g>
		<path class="st0" d="M69.1,129.7c-3.9,0-7.5-1.6-10.3-4.5l-0.6-0.6l-0.5-0.7c-0.1-0.1-0.3-0.3-0.4-0.5l-0.5-0.5l-0.2-0.4l-0.4-0.5
			c-1.1-1.3-2.3-2.7-3.2-3.8l-0.4-0.5c-4.9-5.7-10.8-12.6-19.2-22c-6.6-7.3-15.3-17.1-23.3-27.8c-5.7-7.7-5.6-14.7,0.2-21.5l0.1-0.3
			l5.6-5.8l1-1c0.3-0.3,0.5-0.5,0.6-0.7l0.1-0.2l0.1-0.1c1.4-1.4,2.8-2.9,4.3-4.5c3.3-3.3,6.2-6.1,8.7-8.5c0.4-0.4,1-0.9,1.5-1.4
			c0.4-0.4,0.8-0.8,1.2-1.2l0.1-0.1c3-2.9,6.9-4.3,11.3-4.3c6.9,0,13.4,0,19.8,0.1c12.7,0.1,28.9,0.2,35.2,0.2h2.6
			c4.4,0,8.5,1.7,11.4,4.8l6.3,6.5c0.8,0.8,1.7,1.7,2.6,2.7c0.4,0.4,0.8,0.9,1.3,1.3c0.4,0.4,0.8,0.8,1.2,1.2l0.2,0.2
			c1.8,1.9,3.5,3.7,5.2,5.3l0.1,0.1c2,2.1,3.9,4.1,5.7,6.2l0.2,0.3c0.7,0.8,1.4,1.5,2,2.1l0.4,0.4l0.1,0.1c3.1,3.4,4.5,7.1,4.3,11
			c-0.1,2.9-1.2,7.2-5.6,10.8c-7.7,6.6-14.4,12.8-20,17.9l-3.9,3.7c-1,1-1.9,1.8-2.8,2.7l-0.2,0.2l-0.2,0.1
			c-0.3,0.3-0.8,0.7-1.2,1.1c-0.3,0.3-0.6,0.6-1,0.9c-0.2,0.2-0.5,0.4-0.7,0.6l-0.1,0.1c-2.1,2-4.3,4-6.3,5.8l-0.1,0.1l-0.3,0.2
			c-0.2,0.1-0.3,0.3-0.4,0.4c-0.4,0.4-0.9,0.8-1.5,1.3c-1.3,1.2-2.6,2.4-3.9,3.5l-0.3,0.2c-0.7,0.6-1.3,1.2-1.8,1.7l-0.2,0.2l-5.5,5
			c-1,1-2.3,2.2-3.8,3.3c-1.3,1.1-2.9,2.5-4.4,3.9l0,0C77.2,127.8,73.3,129.7,69.1,129.7z"/>
		<path class="st1" d="M45.2,23.3c6.9,0,13.4,0,19.7,0.1c12.8,0.1,29,0.2,35.3,0.2h2.6c3.1,0,5.9,1.2,7.8,3.2l6.4,6.5
			c0.8,0.8,1.7,1.7,2.5,2.6c0.8,0.8,1.7,1.8,2.5,2.6l0.1,0.1c1.7,1.8,3.5,3.6,5.3,5.4l0.1,0.1c1.9,2,3.7,4,5.6,6
			c0.8,0.9,1.6,1.8,2.4,2.5l0.3,0.3l0.1,0.1c0.8,0.8,3.2,3.6,3.1,7.5c-0.2,4-2.8,6.4-3.8,7.2c-7.2,6.2-13.6,12-20.2,18.1l-4,3.7
			c-0.9,0.9-1.9,1.8-2.8,2.6l-0.2,0.2c-0.5,0.4-1,0.9-1.5,1.4s-1.1,1-1.6,1.5c-2,1.9-4.1,3.8-6.1,5.6l-0.3,0.3
			c-0.7,0.6-1.3,1.2-2,1.8c-1.3,1.2-2.6,2.4-4,3.6c-0.8,0.8-1.6,1.4-2.3,2.1l-5.6,5.1c-1.1,1.1-2.2,2.1-3.4,3
			c-1.5,1.3-3.3,2.9-5,4.4l-0.1,0.1c-1.5,2.2-4.1,3.4-6.8,3.4c-2.5,0-4.8-1-6.7-3l-0.4-0.4l-0.3-0.3v-0.1c-0.1-0.1-0.2-0.2-0.3-0.3
			c-0.2-0.2-0.3-0.3-0.3-0.4l-0.1-0.1l-0.2-0.2l-0.1-0.2c-1.4-1.6-2.8-3.3-3.9-4.7l-0.4-0.5c-5.3-6.1-11.2-13-19.3-22.2
			C30.8,85,22.2,75.3,14.2,64.7C9.7,59,9.9,54.4,14.6,49.3l0.1-0.2l5.1-5.3c0.3-0.3,0.7-0.7,0.9-0.9c0.3-0.3,0.7-0.7,1-1.1
			c1.4-1.4,2.7-2.9,4.2-4.4c3.2-3.2,6.1-6,8.7-8.5c0.9-0.9,1.9-1.8,2.7-2.6C40.4,23.3,44,23.3,45.2,23.3 M45.2,13.3
			c-5.8,0-10.8,1.9-14.8,5.7l-0.1,0.1l-0.1,0.1c-0.4,0.4-0.7,0.7-1.1,1.1c-0.5,0.5-1,1-1.5,1.5c-2.5,2.4-5.4,5.2-8.7,8.6
			c-1.6,1.6-3.1,3.2-4.5,4.6l-0.3,0.3l-0.2,0.3c-0.1,0.1-0.2,0.2-0.3,0.3l-0.4,0.4l-0.5,0.5l-0.1,0.1L12.5,37l-5.1,5.3l-1.1,1.1
			l-0.2,0.4C1,49.9-2.6,59.3,6,71l0,0l0,0c8.3,10.7,17,20.6,23.8,28.1c7.9,9,13.8,15.9,19.1,22l0.3,0.4c0.9,1.1,2.1,2.5,3.2,3.8
			l0.1,0.1l0.3,0.6l0.8,0.8c0.1,0.1,0.2,0.2,0.3,0.3l0.2,0.2l0.4,0.6l0.5,0.5l0.4,0.4c3.7,3.8,8.6,6,13.8,6c5.6,0,10.8-2.4,14.2-6.6
			c1.3-1.2,2.7-2.4,3.9-3.4c1.7-1.2,3.1-2.5,4.1-3.6l5.4-4.9l0.2-0.2l0.2-0.2c0.4-0.4,1-0.9,1.7-1.5l0.2-0.2
			c1.3-1.1,2.6-2.3,3.9-3.5c0.6-0.5,1.2-1,1.6-1.4c0.1-0.1,0.2-0.2,0.3-0.2l0,0l0.3-0.2l0.3-0.2c2.1-1.8,4.3-3.8,6.4-5.9l0.1-0.1
			l0.1-0.1c0.2-0.2,0.3-0.3,0.5-0.5c0.4-0.3,0.7-0.7,1.1-1c0.3-0.3,0.7-0.7,0.9-0.8l0.3-0.3l0.3-0.3l0,0c0.9-0.8,1.9-1.7,2.8-2.7
			l3.8-3.6c5.5-5.1,12.2-11.2,19.9-17.8c4.5-3.8,7.1-8.9,7.3-14.4c0.2-3.6-0.7-9.1-5.6-14.6l-0.2-0.2l-0.2-0.2l-0.1-0.1l-0.3-0.3
			c-0.5-0.5-1.1-1.2-1.8-1.9l-0.2-0.3c-1.9-2.1-3.8-4.2-5.8-6.2l-0.1-0.1l-0.1-0.1l-0.1-0.1c-1.6-1.6-3.3-3.4-5.1-5.3l-0.1-0.1
			l-0.1-0.1l-0.1-0.1c-0.4-0.4-0.7-0.8-1.1-1.1c-0.4-0.4-0.8-0.9-1.3-1.3c-0.9-1-1.8-1.9-2.7-2.8l-6.3-6.5c-3.8-4-9.3-6.3-15-6.3
			h-2.6c-6.3,0-22.5-0.1-35.2-0.2C58.7,13.3,52.1,13.3,45.2,13.3L45.2,13.3z"/>
	</g>
	<path class="st0" d="M69.1,124.7c-2.5,0-4.8-1-6.7-3l-0.4-0.4l-0.3-0.3v-0.1c-0.1-0.1-0.2-0.2-0.3-0.3c-0.2-0.2-0.3-0.3-0.3-0.4
		l-0.1-0.1l-0.2-0.2l-0.1-0.2c-1.4-1.6-2.8-3.3-3.9-4.7l-0.4-0.5c-5.3-6.1-11.2-13-19.3-22.2C30.6,85.1,22,75.4,14,64.8
		C9.7,59,9.9,54.4,14.6,49.3l0.1-0.2l5.1-5.3c0.3-0.3,0.7-0.7,0.9-0.9c0.3-0.3,0.7-0.7,1-1.1c1.4-1.4,2.7-2.9,4.2-4.4
		c3.2-3.2,6.1-6,8.7-8.5c0.9-0.9,1.9-1.8,2.7-2.6c3.1-3,6.7-3,7.9-3c6.9,0,13.4,0,19.7,0.1c12.8,0.1,29,0.2,35.3,0.2h2.6
		c3.1,0,5.9,1.2,7.8,3.2l6.4,6.5c0.8,0.8,1.7,1.7,2.5,2.6c0.8,0.8,1.7,1.8,2.5,2.6l0.1,0.1c1.7,1.8,3.5,3.6,5.3,5.4l0.1,0.1
		c1.9,2,3.7,4,5.6,6c0.8,0.9,1.6,1.8,2.4,2.5l0.3,0.3l0.1,0.1c0.8,0.8,3.2,3.6,3.1,7.5c-0.2,4-2.8,6.4-3.8,7.2
		c-7.2,6.2-13.6,12-20.2,18.1l-4,3.7c-0.9,0.9-1.9,1.8-2.8,2.6l-0.2,0.2c-0.5,0.4-1,0.9-1.5,1.4s-1.1,1-1.6,1.5
		c-2,1.9-4.1,3.8-6.1,5.6l-0.3,0.3c-0.7,0.6-1.3,1.2-2,1.8c-1.3,1.2-2.6,2.4-4,3.6c-0.8,0.8-1.6,1.4-2.3,2.1l-5.6,5.1
		c-1.1,1.1-2.2,2.1-3.4,3c-1.5,1.3-3.3,2.9-5,4.4l-0.1,0.1C74.4,123.5,71.8,124.7,69.1,124.7z"/>
	<g>
		<path class="st2" d="M73.2,40.8c4.4,0.2,8.7,0.4,12.8,2.3c2.7,1.1,4.8,3.2,5.9,5.9c0.3,0.8,0.8,1.1,1.6,1.1c2,0,3.9,0,5.9,0.1
			c1.2,0,1.5-0.4,1.5-1.6c0.1-3.1,0.3-6.4,0.4-9.5c0-0.6,0-1.4,0.4-1.7s0.9,0.5,1.3,1c4.4,4.4,9,8.9,13.4,13.2
			c1.9,1.9,3.6,3.8,5.5,5.6c0.8,0.8,0.6,1.2-0.1,1.8c-3,2.5-5.9,5.2-8.7,7.9c-0.9,0.9-1.8,2-2.8,2.8c-0.3,0.2-0.4,0.5-0.8,0.4
			c-0.3-0.2-0.2-0.4-0.2-0.7c-0.3-2-0.3-2-2.3-2s-2,0-2-2c0-1.5,0.2-3.1,0.3-4.7c0.1-0.9,0.4-1.4,1.4-1.2c0.1,0,0.2,0,0.3,0
			c2.7,0,2.7,0,2.8-2.8c0.1-0.9-0.3-1.2-1.2-1.2c-2.7-0.2-2.7-0.2-2.5-2.8c0.1-1.9,0.1-2-1.8-2c-4.2,0.1-3.6-0.3-3.8,3.5
			c-0.1,1.1-0.3,1.5-1.6,1.4c-2-0.3-4.2,0.1-6.4-0.1c-0.8-0.1-1.2-0.3-1.2-1.2c0.1-0.8,0-1.6,0.2-2.4c0.1-0.8-0.3-1.2-1-1.2
			c-0.2,0-0.3,0-0.4,0c-3.6,0.1-3-0.4-3.2,2.9c-0.1,1.6-0.1,1.6-1.7,1.5c-0.4,0-1,0-1.5,0c-0.6,0-1.2,0.4-1.2,1.1l0,0
			c-0.1,0.7-0.2,1.4-0.2,2.1c-0.1,0.4,0.3,0.8,0.6,0.8H83c0.2,0,0.3,0,0.4,0c2.9,0,2.9,0,2.8,2.9c-0.1,1.2-0.3,2.5-0.3,3.8
			c0,0.8-0.4,1.1-1.2,0.9c0,0.3-0.4,0.3-0.8,0.3c-2,0-2.8,1.1-2.2,3.1c0.2,0.6,0.6,0.8,1.2,0.8c0.8,0.2,1.6,0.3,2.4,0.3
			c0.9,0,1.1,0.4,1,1.2c-0.1,1-0.2,2-0.2,2.9c-0.1,1.1,0.4,1.6,1.5,1.5c0.3,0,0.7,0,1,0.1c0.3,0,0.4,0.2,0.4,0.4s-0.2,0.4-0.4,0.4
			c-2.8,1.2-4.5,3.4-5.9,5.9c-0.3,0.4-0.6,0.9-1.2,1.1c-3.4,1.1-6.8,2-10.4,1.3c-6.5-1.4-12.5-4.2-16.5-9.7c-3-4.1-4.4-8.7-4.6-13.8
			c-0.3-4.8,2-8.6,4.5-12.2C59.2,44,65.3,41.2,73.2,40.8z"/>
		<path class="st2" d="M86.7,92.4c-0.2,0.3-0.4,0.5-0.5,0.8C81,98.5,75.8,103.9,70.3,109c-0.6,0.5-1,0.6-1.6-0.2
			c-4.9-5.9-9.7-12-14.8-17.7c-0.2-0.2-0.3-0.4-0.4-0.6c-0.2-0.3-0.3-0.4-0.2-0.7c0.3-0.3,0.5-0.2,0.8,0c1.7,0.8,3.5,1.4,5.2,2
			c6.7,2.1,13.7,2.7,20.6,1.4c2-0.4,3.7-1,5.7-1.4C85.9,91.7,86.5,91.6,86.7,92.4z"/>
		<path class="st2" d="M37.1,45.4C33.3,49,29.8,53,26.3,56.7c-0.6,0.6-0.2,1.2,0.3,1.5c1.5,2,3.1,4,4.7,5.9c1-0.3,0.4-1.2,0.7-1.8
			c0.4-2.9,2-5.3,3.4-7.9C39,47.9,44.3,42.9,50.8,39c0.8,0.6,0,0.7-0.3,0.9c-2,1.4-4.2,2.7-6.1,4.4c-5.3,4.7-9.2,10.5-11.4,17
			c-0.4,1.4-0.4,3-0.2,4.5c0.1,0.4,0.3,0.8-0.2,1c-0.4,0.3-0.5-0.3-0.8-0.4c-2-2.7-4.2-5.4-6.3-8.2c-0.4-0.6-0.4-1.2,0.1-1.7
			c2.8-3.1,5.7-6.3,8.7-9.3c0.6-0.6,1.3-1.2,2-1.9C36.6,45.1,36.8,45,37.1,45.4z"/>
		<path class="st2" d="M99.8,74c0,0.6,0.1,1,0.1,1.4c0,1.2,0.5,1.7,1.7,1.8c0.3,0,0.6-0.2,0.7,0.2c0,0.2-0.3,0.4-0.4,0.6
			c-0.3,0.3-0.5,0.6-0.9,0.9c-0.4,0.4-1.1,1.4-1.6,1.4c-0.8,0-0.4-1.2-0.8-1.7c-0.5-0.8-1.2-1.4-2-1.7c-0.9-0.3-2-0.3-3-0.3
			c-2.9,0.2-2.9,0.2-2.7-2.7c0-0.3,0-0.6,0-0.9c0-1.2,0.4-1.5,1.6-1.4c2,0.2,3.7,0.3,5.7,0.3C99.4,71.9,100.2,72.4,99.8,74
			C99.7,73.7,99.7,73.8,99.8,74z"/>
		<path class="st2" d="M96,59.7c1.2,0,2.3,0,3.5,0c0.8,0,1.1,0.3,1,1.1c-0.2,1.9-0.4,3.6-0.4,5.6c0,0.5-0.3,0.8-0.8,0.8
			C96.9,67.1,94.4,67,92,67c-0.7,0-0.8-0.5-0.8-1.1c0.1-2,0.3-3.7,0.4-5.7c0-0.5,0.4-0.6,0.8-0.6C93.7,59.7,94.8,59.7,96,59.7
			L96,59.7L96,59.7z"/>
		<path class="st2" d="M92.7,40.6c-0.1,1-0.5,1.4-1.4,0.8c-1.4-1.2-2.9-2.4-4.4-3.6c-0.2-0.1-0.3-0.3-0.3-0.4
			c0.1-0.3,0.4-0.2,0.5-0.2c2.1,0.1,4.4,0.2,6.5,0.3c0.7,0,1,0.4,0.5,1c-0.4,0.6-0.6,1.4-1.3,1.9h-0.1c-0.2-0.2-0.3-0.4-0.3-0.5
			c-0.1-0.2-0.2-0.4-0.2-0.5s-0.1-0.2-0.2-0.3c0,0-0.1-0.1-0.2-0.1c-0.5-0.3-1.1,0-1.5-0.1c0.6,0.4,1.1,0.9,1.6,1.3
			c0.1,0,0.3,0.1,0.3,0.1l0.2,0.1l0.1,0.1L92.7,40.6z"/>
		<path class="st2" d="M53,38c0.3-0.2,0.4-0.3,0.3-0.5c-1-0.4-2-0.2-3.1-0.3c-0.3,0-0.6,0-0.6-0.3c0-0.4,0.4-0.3,0.5-0.3
			c1.5,0,3.1,0,4.5,0c0.4,0,0.8,0,0.8,0.4c0.1,0.4-0.4,0.4-0.7,0.5c-0.7,0.4-1.4,1-2.3,0.9l-0.1-0.1c0-0.2,0-0.3,0.1-0.4L53,38
			L53,38z"/>
		<path class="st2" d="M105,73.3c0-1.5,0.7-2,2.1-1.6c0.4,0.2,0.4,0.4,0.3,0.6c-0.3,0.4-0.6,1-1,1.4c-0.3,0.3-0.6,1-1.2,0.8
			C104.8,74.3,105.1,73.7,105,73.3z"/>
		<path class="st2" d="M52.7,38.7c-0.3,0.4-0.5,1.2-1.2,0.3l0.2-0.2c0.1,0.1,0.2,0.1,0.2-0.1l0.4-0.3C52.3,38.4,52.5,38.4,52.7,38.7
			L52.7,38.7z"/>
		<path class="st2" d="M93,40.5l-0.3,0.3l0,0C92.6,40.5,92.7,40.4,93,40.5L93,40.5z"/>
		<path class="st2" d="M51.4,66.3c0.2,0.2,0.3,0.4,0.1,0.5C51.4,66.8,51.3,66.5,51.4,66.3z"/>
		<path class="st2" d="M31.9,62.5c0,0.5,0,1.1-0.1,1.6c-0.1,0.4-0.3,0.8-0.6,0.2C31.7,63.8,31.5,63.1,31.9,62.5z"/>
		<path class="st2" d="M52.6,38.6l-0.4-0.2l0.4-0.3C52.7,38.3,52.7,38.4,52.6,38.6z"/>
		<path class="st2" d="M51.8,38.7c0,0.2-0.1,0.1-0.2,0.1C51.7,38.7,51.7,38.6,51.8,38.7L51.8,38.7z"/>
		<polygon class="st2" points="53,38 53,38 52.9,38 52.9,37.9 		"/>
		<path class="st2" d="M83.7,94.2c0-0.3-0.1-0.4-0.1-0.8c0.3-0.2,0.4-0.3,0.6,0C84.3,93.8,84,94,83.7,94.2z"/>
		<path class="st2" d="M100.2,78.1c0,0.3-0.3,0.4-0.4,0.4c-0.2,0-0.4-0.2-0.4-0.4V78c0-0.3,0.3-0.4,0.5-0.4
			C99.9,77.6,100.2,77.8,100.2,78.1L100.2,78.1z"/>
		<path class="st2" d="M93.3,38.4c-1.1-0.2-2.2,0.2-3.4-0.2C91,38.3,92.2,37.9,93.3,38.4z"/>
		<path class="st2" d="M92.5,40.6c0-0.4,0.3-0.7,0.4-0.9l0.1,0.8l-0.3,0.3L92.5,40.6z"/>
		<path class="st2" d="M93.2,39.1l0.2-0.3C93.3,39,93.3,39,93.2,39.1L93.2,39.1z"/>
		<path class="st2" d="M92.1,40.9l0.3-0.3C92.5,40.9,92.4,41,92.1,40.9z"/>
	</g>
	<g>
		<path class="st1" d="M37.1,45.4c2.3-2.5,4.9-4.8,7.4-7.2c0.5-0.6,1.3-0.9,2.1-0.8c2.2,0,4.4,0,6.8,0c0.3,0.2,0.3,0.4,0.2,0.6
			c-0.1,0.1-0.2,0.2-0.3,0.3c-0.1,0-0.3,0.1-0.3,0.2c-0.3,0-0.4,0.2-0.5,0.3S52.3,39,52.2,39c-0.2,0-0.3,0.1-0.4,0.1h-0.3
			c-0.3,0-0.6,0.2-0.8,0.4c-0.5,0.9-1.5,1.4-2.5,2c-6.7,4-10.9,9.9-14.4,16.7c-0.6,1.3-1.4,2.7-1.4,4.3c-0.1,0.8-0.5,1.4-1.1,2
			c-0.4,0.2-0.8-0.2-1.1-0.4c-1.4-1.9-2.8-3.6-4.2-5.5c-0.5-0.8-0.5-1.4,0.2-2c2.5-2.7,4.9-5.3,7.5-7.9
			C34.7,47.3,35.6,46.1,37.1,45.4z"/>
		<path class="st1" d="M51.4,66.3c-1.1-5.2-0.2-9.8,2.8-14.3c3.2-4.8,7.4-8.3,13.1-9.5c6.8-1.5,13.3-1.2,19.6,2
			c1.7,0.9,3.1,2.3,4.1,4c0.4,0.8,0.4,1.3-0.7,1.2c-0.3,0-0.4,0-0.8,0c-3.6,0-2.8-0.6-3.1,2.9c-0.2,1.7-0.1,1.7-1.9,1.8
			c-2.3,0.1-2.3,0.1-2.5,2.4c0,0.1,0,0.2,0,0.3c0,0.8-0.5,2,0,2.6c0.4,0.6,1.6,0.2,2.5,0.3c0.8,0.1,1.2,0.3,1.1,1.2
			c-0.1,1.3-0.3,2.6-0.3,3.9c0,0.8-0.4,1.1-1.1,1.1c-0.3,0-0.6,0-0.9,0c-2.2,0-2.2,0-2.4,2.2c-0.3,3.1-0.3,3.1,2.9,3.1
			c1.2,0,1.6,0.4,1.5,1.6c-0.1,0.9-0.2,1.9-0.2,2.8c0,0.5-0.2,1.2,0.6,1.4c0.6,0.3,0.2,0.6-0.1,0.8c-1.5,1.4-2.8,3-3.6,4.9
			c-0.3,0.6-0.8,0.8-1.4,1c-4,1.4-8,1.5-12.1,0.3c-3.6-1.2-7-2.6-9.9-5c-4.1-3.1-6.2-7.5-7.3-12.3C51.4,66.7,51.5,66.5,51.4,66.3z"
			/>
		<path class="st1" d="M101.8,46.2c0-2,0.3-4.2,0.4-6.2c0-0.3-0.1-0.8,0.3-0.9c0.4-0.2,0.6,0.3,0.8,0.4c3.9,3.6,7.6,7.6,11.4,11.4
			c2,2,4,4.2,6,6.2c0.7,0.7,0.6,1.2-0.1,1.9c-3.1,2.8-6.2,5.7-9.3,8.5c-0.4,0.4-0.8,0.8-0.9-0.3c0-0.6-0.4-0.6-0.8-0.7
			c-0.4,0-0.8-0.1-1.2-0.1c-2.3-0.2-2.3-0.2-2.2-2.4c0.1-1.1,0.3-2.2,0.3-3.3c0-0.7,0.4-0.8,1-0.8c0.8,0,1.7,0,2.5,0.1
			c0.4,0,0.8,0,0.8-0.5c0.1-1.3,0.3-2.6,0.3-3.9c0.1-0.6-0.2-0.8-0.8-0.8c-3.4-0.3-3.1,0.4-2.8-3.1c0.2-1.5,0.2-1.5-1.4-1.6
			c-1,0-2-0.1-2.9,0c-1,0-1.3-0.4-1.2-1.4C101.9,47.8,101.8,47,101.8,46.2z"/>
		<path class="st1" d="M96.7,50.9c0.9,0,1.9,0,2.8,0c0.7,0,0.9,0.3,0.8,0.9c0,0.1,0,0.2,0,0.3c0,2.5,0,2.5-2.5,2.5
			c-1.3,0-2.6-0.1-3.9-0.2c-0.8,0-1.2-0.4-1.2-1.2c0-0.3,0.1-0.7,0-1c-0.1-1.2,0.4-1.4,1.4-1.4C95.1,51,95.9,50.9,96.7,50.9
			L96.7,50.9L96.7,50.9z"/>
		<path class="st1" d="M83.7,94.2c-4.2,4.8-8.7,9.3-13.5,13.5c-0.5,0.4-0.9,0.7-1.5,0c-3.9-4.8-7.9-9.7-11.8-14.5
			c-0.3-0.4-0.8-0.7-0.8-1.3c0.5,0.1,1.1,0.3,1.5,0.4c4.5,1.6,9.3,2.5,14.1,2.6c4.1,0.2,8.1-0.4,12-1.4
			C83.7,93.7,83.7,93.9,83.7,94.2z"/>
		<path class="st1" d="M95.3,72.2c0.6,0,1.2,0.1,2,0.1c2,0,2,0,1.9,2c-0.1,0.8,0.3,2.1-0.3,2.5c-0.7,0.6-1.4-0.6-2.2-0.8
			c-1.2-0.3-2.5-0.4-3.7-0.4c-0.8,0-1.2-0.2-1.2-1.1c0-2.7,0-2.7,2.7-2.5C94.6,72.2,94.9,72.2,95.3,72.2L95.3,72.2L95.3,72.2z"/>
		<path class="st1" d="M95.8,66.4c-0.4,0-0.9-0.1-1.4-0.1c-2.7-0.1-2.7-0.1-2.4-2.8c0-0.3,0.1-0.4,0.1-0.6c0.3-2.6,0.3-2.6,3-2.5
			c1.2,0,2.5,0.1,3.6,0.1c0.6,0,1,0.4,0.8,0.9c-0.3,1.3-0.3,2.6-0.3,3.9c-0.1,0.8-0.4,1.2-1.2,1.1C97.3,66.4,96.5,66.4,95.8,66.4
			L95.8,66.4L95.8,66.4z"/>
		<path class="st1" d="M93.2,39.1l-0.3,0.4c-0.2,0.3-0.1,0.8-0.4,0.9l0,0c0,0.2-0.2,0.3-0.3,0.3c-1.2-0.4-1.9-1.3-2.7-2
			c-0.4-0.3-0.3-0.4,0.5-0.5c1.2,0,2.2-0.3,3.4,0.2v0.4C93.3,39,93.3,39.1,93.2,39.1z"/>
	</g>
</g>
</svg>
