<?xml version="1.0" encoding="UTF-8" standalone="no"?>
<svg
    version="1.1"
    viewBox="0 0 150 150"
    xmlns="http://www.w3.org/2000/svg"
    >
    <path
        d="m 69.100001,129.2445 c -2.5,0 -4.8,-1 -6.7,-3 l -0.4,-0.4 -0.3,-0.3 v -0.1 c -0.1,-0.1 -0.2,-0.2 -0.3,-0.3 -0.2,-0.2 -0.3,-0.3 -0.3,-0.4 l -0.1,-0.1 -0.2,-0.2 -0.1,-0.2 c -1.4,-1.6 -2.8,-3.3 -3.9,-4.7 l -0.4,-0.5 c -5.3,-6.1 -11.200002,-13 -19.300002,-22.199997 -6.5,-7.2 -15.1,-16.9 -23.099999,-27.5 -4.3000004,-5.8 -4.1000004,-10.4 0.6,-15.5 l 0.1,-0.2 5.099999,-5.3 c 0.3,-0.3 0.7,-0.7 0.9,-0.9 0.3,-0.3 0.7,-0.7 1,-1.1 1.4,-1.4 2.7,-2.9 4.2,-4.4 3.2,-3.2 6.1,-6 8.7,-8.5 0.9,-0.9 1.9,-1.8 2.7,-2.6 3.1,-3 6.7,-3 7.9,-3 6.900002,0 13.400002,0 19.700002,0.1 12.8,0.1 29,0.2 35.299999,0.2 h 2.6 c 3.1,0 5.9,1.2 7.8,3.2 l 6.4,6.5 c 0.8,0.8 1.7,1.7 2.5,2.6 0.8,0.8 1.7,1.8 2.5,2.6 l 0.1,0.1 c 1.7,1.8 3.5,3.6 5.3,5.4 l 0.1,0.1 c 1.9,2 3.7,4 5.6,6 0.8,0.9 1.6,1.8 2.4,2.5 l 0.3,0.3 0.1,0.1 c 0.8,0.8 3.2,3.6 3.1,7.5 -0.2,4 -2.8,6.4 -3.8,7.2 -7.2,6.2 -13.6,12 -20.2,18.1 l -4,3.7 c -0.9,0.9 -1.9,1.8 -2.8,2.6 l -0.2,0.2 c -0.5,0.4 -1,0.9 -1.5,1.399997 -0.5,0.5 -1.1,1 -1.6,1.5 -2,1.9 -4.1,3.8 -6.099999,5.6 l -0.3,0.3 c -0.7,0.6 -1.3,1.2 -2,1.8 -1.3,1.2 -2.6,2.4 -4,3.6 -0.8,0.8 -1.6,1.4 -2.3,2.1 l -5.6,5.1 c -1.1,1.1 -2.2,2.1 -3.4,3 -1.5,1.3 -3.3,2.9 -5,4.4 l -0.1,0.1 c -1.7,2.3 -4.3,3.5 -7,3.5 z"
        style="fill:#000000;" />
</svg>